# Blender v2.82 (sub 7) OBJ File: 'scene_asset_cy.blend'
# www.blender.org
mtllib rock2.mtl
o rock1_Cube.003
v 0.381775 1.535650 0.524987
v -0.253139 0.051834 0.665527
v -0.303423 0.173735 0.821311
v -1.027176 0.378453 0.211911
v -0.624682 1.345502 0.755083
v -0.440742 1.431495 0.645114
v -0.736021 1.306811 0.272088
v -0.698568 1.044145 0.404736
v 0.594320 0.433849 0.885506
v 0.334802 1.310211 0.657493
v 0.594121 1.343272 0.586165
v 0.691237 0.951930 0.694141
v 0.761056 0.098522 -0.184014
v 0.289671 0.083497 -0.751229
v 0.567117 1.444142 -0.231779
v -0.244871 -0.032274 -0.029754
v -0.629820 0.592795 1.047736
v -0.303590 1.623242 -0.410079
v -0.623952 0.392926 -0.606695
v 0.083562 0.185336 -0.947924
v -0.047570 1.380193 -1.088115
v -0.512100 1.160300 -0.825218
v 0.763354 0.342389 -0.496846
v 0.568986 0.430620 -0.653048
v 0.276011 -0.064475 -0.191052
v 1.028738 0.380808 -0.150450
v 0.268912 1.438378 -0.162879
v 0.493254 1.487644 0.245205
v 0.046446 -0.156502 0.643790
v 0.311968 0.525753 1.092287
v -0.052082 0.342199 1.148940
v -0.018795 1.565608 0.359454
v -0.387972 0.496355 1.091290
v 0.761861 0.590389 -0.478075
v 0.899841 1.064436 -0.391211
v 0.974767 0.895243 -0.241135
v 1.111963 0.474244 -0.024220
v -0.162077 1.534450 -0.071273
v -0.916468 0.839180 -0.014497
v -0.820611 1.059686 0.086601
v -0.892291 1.030625 -0.484168
v -0.241216 0.450443 -0.785125
v 0.001880 1.075222 -1.027066
v 0.010917 0.518225 -0.958064
v -0.606040 0.169396 0.622018
v -0.679598 1.362064 0.617755
v -0.652382 0.028632 -0.626922
v 0.659899 0.096739 0.585504
v 0.659159 1.507855 -0.573292
v 0.790029 1.381528 -0.680665
v 0.687984 1.340328 -0.763871
v -0.438459 -0.058565 0.185580
v -0.648714 0.057675 -0.248118
v -0.758361 0.035485 0.076563
v -0.601148 0.972861 0.877299
v -0.803697 0.512642 0.831912
v -0.675874 0.985996 0.712619
v -0.865616 0.470228 0.696974
v -0.704234 1.411913 -0.217714
v -0.725575 1.332537 0.026268
v -0.779917 1.257470 -0.333333
v -0.682259 0.595897 -0.606367
v -0.782095 1.012803 -0.698232
v 0.067630 0.059350 -0.721738
v -0.265153 -0.013201 -0.775714
v -0.021597 0.141738 -0.905603
v 0.228187 1.520377 -0.642149
v -0.213873 1.608541 -0.572164
v -0.111521 1.567011 -0.806974
v 0.312618 1.455609 -0.908307
v 0.294305 1.260953 -0.908737
v 0.733207 0.871020 -0.533329
v 0.502734 -0.043151 -0.300947
v 0.551246 0.008348 0.525053
v 0.690474 0.093414 0.020850
v 0.757928 0.136842 0.084186
v 0.529419 1.441768 -0.041934
v 0.597845 1.345372 0.392419
v 0.664004 1.280484 0.137351
v 0.486514 0.746545 0.885029
v 0.980793 0.473373 0.579127
v 0.768065 0.802233 0.653939
v 0.882899 0.365449 0.693856
v -0.171908 1.502282 0.462188
v 0.170733 1.269037 0.715671
v -0.197181 1.220241 0.732274
v 0.054592 -0.139521 -0.084839
v -0.092935 -0.190494 0.304772
vt 0.283621 0.410410
vt 0.307425 0.454651
vt 0.270147 0.496912
vt 0.170363 0.363786
vt 0.267447 0.383214
vt 0.217400 0.447871
vt 0.093957 0.478890
vt 0.113665 0.413982
vt 0.279586 0.007499
vt 0.368183 0.109762
vt 0.381557 0.146490
vt 0.622212 0.708784
vt 0.676308 0.843767
vt 0.608313 0.862531
vt 0.494875 0.878008
vt 0.455106 0.804806
vt 0.415176 0.802642
vt 0.399352 0.785247
vt 0.400475 0.688893
vt 0.427226 0.675502
vt 0.436689 0.706754
vt 0.530457 0.663427
vt 0.522115 0.576320
vt 0.587362 0.648058
vt 0.178710 0.763252
vt 0.186548 0.891946
vt 0.154312 0.868609
vt 0.088976 0.747628
vt 0.004751 0.653176
vt 0.092320 0.630888
vt 0.160270 0.586353
vt 0.184045 0.641230
vt 0.204301 0.678988
vt 0.452359 0.313381
vt 0.622786 0.308097
vt 0.619473 0.384737
vt 0.570416 0.481426
vt 0.486567 0.502012
vt 0.460390 0.456207
vt 0.951129 0.178284
vt 0.843718 0.177663
vt 0.768428 0.096544
vt 0.750768 0.059637
vt 0.832859 0.053768
vt 0.935450 0.005998
vt 0.961509 0.088319
vt 0.995782 0.145283
vt 0.884232 0.403339
vt 0.805647 0.405846
vt 0.870209 0.363306
vt 0.650966 0.477500
vt 0.233076 0.310391
vt 0.304342 0.323303
vt 0.331674 0.201191
vt 0.350048 0.184518
vt 0.380411 0.228297
vt 0.381557 0.310213
vt 0.359532 0.396031
vt 0.441185 0.227730
vt 0.391902 0.170337
vt 0.433581 0.143136
vt 0.073975 0.913953
vt 0.030315 0.933172
vt 0.047800 0.848418
vt 0.631081 0.267854
vt 0.636707 0.206280
vt 0.682100 0.245533
vt 0.027144 0.734840
vt 0.153451 0.296555
vt 0.971527 0.338897
vt 0.792704 0.373558
vt 0.775313 0.405641
vt 0.775765 0.291506
vt 0.834436 0.301324
vt 0.808535 0.225121
vt 0.021379 0.137692
vt 0.023706 0.109864
vt 0.065572 0.144024
vt 0.071763 0.568434
vt 0.649801 0.134129
vt 0.523550 0.169473
vt 0.459582 0.110512
vt 0.493118 0.007419
vt 0.590984 0.015697
vt 0.608388 0.027867
vt 0.634449 0.015134
vt 0.705662 0.110296
vt 0.273664 0.100969
vt 0.036979 0.780114
vt 0.690171 0.350499
vt 0.670713 0.427446
vt 0.705662 0.307271
vt 0.504423 0.255382
vt 0.551910 0.192988
vt 0.257403 0.107858
vt 0.180570 0.230369
vt 0.183238 0.169997
vt 0.420255 0.391869
vt 0.287594 0.722042
vt 0.294345 0.781263
vt 0.299121 0.840587
vt 0.243353 0.933172
vt 0.240337 0.580417
vt 0.296417 0.608838
vt 0.321462 0.658827
vt 0.301126 0.694590
vt 0.143205 0.521120
vt 0.382273 0.515715
vt 0.382273 0.567435
vt 0.352272 0.521954
vt 0.620889 0.890238
vt 0.684996 0.859118
vt 0.715856 0.890037
vt 0.218003 0.507440
vt 0.190114 0.504237
vt 0.648584 0.181078
vt 0.069303 0.350459
vt 0.005639 0.304571
vt 0.023593 0.207261
vt 0.083418 0.094172
vt 0.188022 0.109211
vt 0.351449 0.516503
vt 0.351449 0.620713
vt 0.326586 0.581142
vt 0.410233 0.662071
vt 0.489090 0.612609
vt 0.969694 0.405846
vt 0.750227 0.242814
vt 0.706445 0.949153
vt 0.631532 0.943731
vt 0.590032 0.957151
vt 0.392052 0.876039
vt 0.433077 0.898547
vt 0.605962 0.516575
vt 0.626533 0.549250
vt 0.638375 0.648189
vt 0.687200 0.186475
vt 0.694630 0.141964
vt 0.229921 0.067678
vt 0.027395 0.886520
vt 0.714587 0.199806
vt 0.735741 0.156405
vt 0.252954 0.010844
vt 0.167083 0.023018
vt 0.969914 0.301718
vt 0.505693 0.992856
vt 0.476283 0.956145
vt 0.685189 0.605504
vt 0.715856 0.671985
vt 0.694830 0.775359
vn -0.3780 -0.6504 0.6588
vn -0.4889 -0.8032 0.3404
vn 0.8151 -0.5518 0.1764
vn 0.5210 0.0278 -0.8531
vn -0.3530 0.9343 0.0498
vn 0.1613 0.9804 0.1134
vn 0.3396 0.9349 0.1032
vn -0.0010 0.4418 0.8971
vn -0.9174 -0.2398 -0.3178
vn -0.3274 -0.7925 0.5145
vn -0.9053 0.0796 0.4172
vn 0.1428 0.3166 0.9378
vn 0.0711 -0.7122 0.6984
vn 0.3482 -0.5845 0.7329
vn 0.6454 0.7531 0.1279
vn 0.1776 0.4709 0.8641
vn 0.6718 -0.2735 -0.6884
vn 0.0249 0.9815 0.1898
vn -0.1822 -0.9429 -0.2789
vn -0.8484 0.3328 0.4115
vn -0.9532 0.2757 0.1239
vn -0.9317 0.0489 0.3598
vn 0.1697 -0.8660 -0.4704
vn 0.2130 0.9627 -0.1667
vn 0.8683 0.4660 0.1703
vn 0.7473 -0.6579 0.0935
vn -0.0172 0.9998 0.0091
vn -0.0132 0.7122 0.7018
vn 0.5762 0.2898 0.7642
vn 0.6179 0.1080 0.7788
vn 0.1886 0.4681 0.8633
vn 0.2092 0.5693 0.7951
vn 0.3242 -0.9455 -0.0286
vn -0.3673 -0.8941 -0.2561
vn -0.0149 0.3217 0.9467
vn 0.6217 0.2155 0.7531
vn -0.3185 0.9392 0.1282
vn -0.6090 0.6513 -0.4527
vn -0.2959 0.9271 0.2301
vn -0.4868 -0.0397 -0.8726
vn -0.5377 -0.6638 0.5199
vn 0.9510 0.3085 0.0216
vn 0.8502 0.3252 0.4139
vn -0.0522 -0.9896 -0.1341
vn 0.7798 0.5431 0.3115
vn -0.1541 -0.9809 -0.1191
vn 0.9544 0.2963 -0.0375
vn -0.7944 0.2974 0.5296
vn -0.9447 0.3278 -0.0058
vn -0.5790 0.6511 -0.4907
vn -0.3915 0.0368 -0.9194
vn 0.1459 0.0435 -0.9883
vn 0.2610 -0.8273 -0.4974
vn 0.0307 -0.8741 -0.4847
vn 0.3444 0.3547 -0.8692
vn 0.1305 0.9802 -0.1492
vn 0.7893 -0.0045 -0.6140
vn 0.8494 0.5183 0.0997
vn 0.6421 0.0617 -0.7641
vn 0.2191 -0.9376 0.2701
vn 0.5373 -0.8434 0.0061
vn 0.4323 -0.8928 0.1267
vn 0.6110 -0.7896 0.0563
vn 0.3007 0.4214 0.8556
vn 0.7946 0.6068 0.0219
vn 0.5948 0.2063 0.7769
vn 0.5955 0.2087 0.7758
vn -0.9250 0.3704 0.0847
vn -0.2374 -0.9154 -0.3251
vn 0.7118 -0.7023 -0.0108
vn -0.4384 -0.8240 0.3588
vn -0.9047 0.3477 0.2463
vn -0.4092 -0.1988 -0.8905
vn 0.6062 -0.5003 -0.6182
g rock1_Cube.003_Material.004
usemtl Material.004
s off
f 3/1/1 33/2/1 17/3/1
f 52/4/2 2/5/2 45/6/2 4/7/2 54/8/2
f 37/9/3 81/10/3 83/11/3
f 24/12/4 20/13/4 44/14/4 43/15/4 71/16/4 70/17/4 67/18/4 49/19/4 50/20/4 51/21/4 72/22/4 36/23/4 34/24/4
f 38/25/5 84/26/5 32/27/5
f 38/25/6 27/28/6 49/29/6 67/30/6 69/31/6 68/32/6
f 68/32/7 18/33/7 38/25/7
f 30/34/8 85/35/8 86/36/8 55/37/8 17/38/8 33/39/8
f 4/40/9 39/41/9 41/42/9 63/43/9 62/44/9 47/45/9 53/46/9 54/47/9
f 45/6/10 2/5/10 3/1/10
f 55/48/11 5/49/11 57/50/11
f 86/36/12 5/51/12 55/37/12
f 33/2/13 3/1/13 2/5/13 88/52/13 29/53/13 74/54/13 48/55/13 9/56/13 30/57/13 31/58/13
f 9/59/14 48/60/14 83/61/14
f 1/62/15 11/63/15 28/64/15
f 10/65/16 11/66/16 1/67/16
f 72/22/17 51/21/17 50/20/17
f 15/68/18 49/29/18 27/28/18
f 52/4/19 54/8/19 16/69/19
f 57/50/20 56/70/20 55/48/20
f 5/49/21 46/71/21 6/72/21 7/73/21 8/74/21 57/50/21
f 7/73/22 40/75/22 8/74/22
f 66/76/23 20/77/23 64/78/23
f 69/31/24 67/30/24 70/79/24
f 79/80/25 82/81/25 81/82/25 37/83/25 36/84/25 72/85/25 35/86/25 15/87/25
f 48/55/26 76/88/26 83/11/26
f 27/28/27 77/89/27 15/68/27
f 84/90/28 6/91/28 86/36/28 85/35/28 1/67/28 32/92/28
f 83/61/29 81/82/29 9/59/29
f 80/93/30 82/81/30 12/94/30
f 1/67/31 85/35/31 10/65/31
f 6/91/32 5/51/32 86/36/32
f 75/95/33 74/54/33 29/53/33 88/52/33 87/96/33 25/97/33
f 87/96/34 88/52/34 16/69/34
f 31/98/35 30/34/35 33/39/35
f 9/59/36 80/93/36 30/34/36
f 84/26/37 38/25/37 18/33/37 59/99/37 60/100/37 7/101/37 6/102/37
f 22/103/38 63/104/38 41/105/38 61/106/38 18/33/38 68/32/38 69/31/38 21/107/38
f 5/108/39 6/109/39 46/110/39
f 42/111/40 44/14/40 20/13/40 66/112/40 65/113/40
f 3/1/41 17/3/41 56/114/41 58/115/41 4/7/41 45/6/41
f 78/116/42 11/66/42 82/81/42
f 82/81/43 11/66/43 12/94/43
f 53/117/44 47/118/44 65/119/44 64/78/44 14/120/44 73/121/44 25/97/44 87/96/44 16/69/44
f 15/122/45 50/123/45 49/124/45
f 16/69/46 54/8/46 53/117/46
f 72/22/47 50/20/47 15/125/47 35/126/47
f 17/127/48 55/48/48 56/70/48
f 60/128/49 40/75/49 7/73/49
f 18/33/50 61/106/50 59/99/50
f 65/113/51 47/129/51 19/130/51 42/111/51
f 19/130/52 47/129/52 62/131/52
f 65/119/53 66/76/53 64/78/53
f 64/78/54 20/77/54 14/120/54
f 69/132/55 70/17/55 71/16/55 43/15/55 21/133/55
f 27/28/56 38/25/56 32/27/56 1/62/56 28/64/56 77/89/56
f 34/24/57 36/23/57 37/134/57 26/135/57 23/136/57
f 28/137/58 78/116/58 82/81/58 79/80/58 15/87/58 77/138/58
f 34/24/59 23/136/59 24/12/59
f 25/97/60 73/121/60 75/95/60
f 74/54/61 75/95/61 76/88/61
f 73/121/62 13/139/62 75/95/62
f 74/54/63 76/88/63 48/55/63
f 30/34/64 80/93/64 12/94/64 11/66/64 10/65/64 85/35/64
f 28/64/65 11/63/65 78/140/65
f 9/59/66 81/82/66 80/93/66
f 80/93/67 81/82/67 82/81/67
f 41/42/68 39/41/68 40/75/68 60/128/68 59/141/68 61/142/68
f 16/69/69 88/52/69 52/4/69
f 26/143/70 37/9/70 83/11/70 76/88/70 75/95/70 13/139/70 23/144/70
f 52/4/71 88/52/71 2/5/71
f 39/41/72 4/40/72 58/145/72 56/70/72 57/50/72 8/74/72 40/75/72
f 63/146/73 22/147/73 21/133/73 43/15/73 44/14/73 42/111/73 19/130/73 62/131/73
f 20/13/74 24/12/74 23/136/74 13/148/74 73/149/74 14/150/74
